<mxfile host="65bd71144e">
    <diagram id="0UZUP0iJbzgsKN4oJFvu" name="Page-1">
        <mxGraphModel dx="976" dy="797" grid="1" gridSize="10" guides="1" tooltips="1" connect="1" arrows="1" fold="1" page="1" pageScale="1" pageWidth="850" pageHeight="1100" math="0" shadow="0">
            <root>
                <mxCell id="0"/>
                <mxCell id="1" parent="0"/>
                <mxCell id="2" value="Album" style="swimlane;fontStyle=1;align=center;verticalAlign=top;childLayout=stackLayout;horizontal=1;startSize=26;horizontalStack=0;resizeParent=1;resizeParentMax=0;resizeLast=0;collapsible=1;marginBottom=0;" vertex="1" parent="1">
                    <mxGeometry x="330" y="230" width="160" height="216" as="geometry"/>
                </mxCell>
                <mxCell id="3" value="-nombre: String" style="text;strokeColor=none;fillColor=none;align=left;verticalAlign=top;spacingLeft=4;spacingRight=4;overflow=hidden;rotatable=0;points=[[0,0.5],[1,0.5]];portConstraint=eastwest;" vertex="1" parent="2">
                    <mxGeometry y="26" width="160" height="26" as="geometry"/>
                </mxCell>
                <mxCell id="6" value="-anioLanzamiento: int" style="text;strokeColor=none;fillColor=none;align=left;verticalAlign=top;spacingLeft=4;spacingRight=4;overflow=hidden;rotatable=0;points=[[0,0.5],[1,0.5]];portConstraint=eastwest;" vertex="1" parent="2">
                    <mxGeometry y="52" width="160" height="26" as="geometry"/>
                </mxCell>
                <mxCell id="7" value="-disquera: String" style="text;strokeColor=none;fillColor=none;align=left;verticalAlign=top;spacingLeft=4;spacingRight=4;overflow=hidden;rotatable=0;points=[[0,0.5],[1,0.5]];portConstraint=eastwest;" vertex="1" parent="2">
                    <mxGeometry y="78" width="160" height="26" as="geometry"/>
                </mxCell>
                <mxCell id="8" value="-artistas: List&lt;Artistas&gt;" style="text;strokeColor=none;fillColor=none;align=left;verticalAlign=top;spacingLeft=4;spacingRight=4;overflow=hidden;rotatable=0;points=[[0,0.5],[1,0.5]];portConstraint=eastwest;" vertex="1" parent="2">
                    <mxGeometry y="104" width="160" height="26" as="geometry"/>
                </mxCell>
                <mxCell id="17" value="-canciones: List&lt;Cancion&gt;" style="text;strokeColor=none;fillColor=none;align=left;verticalAlign=top;spacingLeft=4;spacingRight=4;overflow=hidden;rotatable=0;points=[[0,0.5],[1,0.5]];portConstraint=eastwest;" vertex="1" parent="2">
                    <mxGeometry y="130" width="160" height="26" as="geometry"/>
                </mxCell>
                <mxCell id="4" value="" style="line;strokeWidth=1;fillColor=none;align=left;verticalAlign=middle;spacingTop=-1;spacingLeft=3;spacingRight=3;rotatable=0;labelPosition=right;points=[];portConstraint=eastwest;strokeColor=inherit;" vertex="1" parent="2">
                    <mxGeometry y="156" width="160" height="8" as="geometry"/>
                </mxCell>
                <mxCell id="5" value="+agregarCancion(cancion)" style="text;strokeColor=none;fillColor=none;align=left;verticalAlign=top;spacingLeft=4;spacingRight=4;overflow=hidden;rotatable=0;points=[[0,0.5],[1,0.5]];portConstraint=eastwest;" vertex="1" parent="2">
                    <mxGeometry y="164" width="160" height="26" as="geometry"/>
                </mxCell>
                <mxCell id="10" value="+listarCanciones()" style="text;strokeColor=none;fillColor=none;align=left;verticalAlign=top;spacingLeft=4;spacingRight=4;overflow=hidden;rotatable=0;points=[[0,0.5],[1,0.5]];portConstraint=eastwest;" vertex="1" parent="2">
                    <mxGeometry y="190" width="160" height="26" as="geometry"/>
                </mxCell>
                <mxCell id="13" value="Artista" style="swimlane;fontStyle=1;align=center;verticalAlign=top;childLayout=stackLayout;horizontal=1;startSize=26;horizontalStack=0;resizeParent=1;resizeParentMax=0;resizeLast=0;collapsible=1;marginBottom=0;" vertex="1" parent="1">
                    <mxGeometry x="120" y="200" width="160" height="86" as="geometry"/>
                </mxCell>
                <mxCell id="14" value="+ nombre: String" style="text;strokeColor=none;fillColor=none;align=left;verticalAlign=top;spacingLeft=4;spacingRight=4;overflow=hidden;rotatable=0;points=[[0,0.5],[1,0.5]];portConstraint=eastwest;" vertex="1" parent="13">
                    <mxGeometry y="26" width="160" height="26" as="geometry"/>
                </mxCell>
                <mxCell id="23" value="+ paisOrigen: String" style="text;strokeColor=none;fillColor=none;align=left;verticalAlign=top;spacingLeft=4;spacingRight=4;overflow=hidden;rotatable=0;points=[[0,0.5],[1,0.5]];portConstraint=eastwest;" vertex="1" parent="13">
                    <mxGeometry y="52" width="160" height="26" as="geometry"/>
                </mxCell>
                <mxCell id="15" value="" style="line;strokeWidth=1;fillColor=none;align=left;verticalAlign=middle;spacingTop=-1;spacingLeft=3;spacingRight=3;rotatable=0;labelPosition=right;points=[];portConstraint=eastwest;strokeColor=inherit;" vertex="1" parent="13">
                    <mxGeometry y="78" width="160" height="8" as="geometry"/>
                </mxCell>
                <mxCell id="18" value="Cancion" style="swimlane;fontStyle=1;align=center;verticalAlign=top;childLayout=stackLayout;horizontal=1;startSize=26;horizontalStack=0;resizeParent=1;resizeParentMax=0;resizeLast=0;collapsible=1;marginBottom=0;" vertex="1" parent="1">
                    <mxGeometry x="120" y="412" width="160" height="138" as="geometry"/>
                </mxCell>
                <mxCell id="19" value="- nombre:String" style="text;strokeColor=none;fillColor=none;align=left;verticalAlign=top;spacingLeft=4;spacingRight=4;overflow=hidden;rotatable=0;points=[[0,0.5],[1,0.5]];portConstraint=eastwest;" vertex="1" parent="18">
                    <mxGeometry y="26" width="160" height="26" as="geometry"/>
                </mxCell>
                <mxCell id="22" value="- duracion: String" style="text;strokeColor=none;fillColor=none;align=left;verticalAlign=top;spacingLeft=4;spacingRight=4;overflow=hidden;rotatable=0;points=[[0,0.5],[1,0.5]];portConstraint=eastwest;" vertex="1" parent="18">
                    <mxGeometry y="52" width="160" height="26" as="geometry"/>
                </mxCell>
                <mxCell id="20" value="" style="line;strokeWidth=1;fillColor=none;align=left;verticalAlign=middle;spacingTop=-1;spacingLeft=3;spacingRight=3;rotatable=0;labelPosition=right;points=[];portConstraint=eastwest;strokeColor=inherit;" vertex="1" parent="18">
                    <mxGeometry y="78" width="160" height="8" as="geometry"/>
                </mxCell>
                <mxCell id="21" value="+get()" style="text;strokeColor=none;fillColor=none;align=left;verticalAlign=top;spacingLeft=4;spacingRight=4;overflow=hidden;rotatable=0;points=[[0,0.5],[1,0.5]];portConstraint=eastwest;" vertex="1" parent="18">
                    <mxGeometry y="86" width="160" height="26" as="geometry"/>
                </mxCell>
                <mxCell id="24" value="+set()" style="text;strokeColor=none;fillColor=none;align=left;verticalAlign=top;spacingLeft=4;spacingRight=4;overflow=hidden;rotatable=0;points=[[0,0.5],[1,0.5]];portConstraint=eastwest;" vertex="1" parent="18">
                    <mxGeometry y="112" width="160" height="26" as="geometry"/>
                </mxCell>
                <mxCell id="25" value="MusicTracker" style="swimlane;fontStyle=1;align=center;verticalAlign=top;childLayout=stackLayout;horizontal=1;startSize=26;horizontalStack=0;resizeParent=1;resizeParentMax=0;resizeLast=0;collapsible=1;marginBottom=0;" vertex="1" parent="1">
                    <mxGeometry x="600" y="230" width="220" height="190" as="geometry"/>
                </mxCell>
                <mxCell id="26" value="+albums: List&lt;Album&gt;" style="text;strokeColor=none;fillColor=none;align=left;verticalAlign=top;spacingLeft=4;spacingRight=4;overflow=hidden;rotatable=0;points=[[0,0.5],[1,0.5]];portConstraint=eastwest;" vertex="1" parent="25">
                    <mxGeometry y="26" width="220" height="26" as="geometry"/>
                </mxCell>
                <mxCell id="27" value="" style="line;strokeWidth=1;fillColor=none;align=left;verticalAlign=middle;spacingTop=-1;spacingLeft=3;spacingRight=3;rotatable=0;labelPosition=right;points=[];portConstraint=eastwest;strokeColor=inherit;" vertex="1" parent="25">
                    <mxGeometry y="52" width="220" height="8" as="geometry"/>
                </mxCell>
                <mxCell id="28" value="+agregarAlbum(nombre, &#10;anioLanzamiento, disquera, artistas)" style="text;strokeColor=none;fillColor=none;align=left;verticalAlign=top;spacingLeft=4;spacingRight=4;overflow=hidden;rotatable=0;points=[[0,0.5],[1,0.5]];portConstraint=eastwest;" vertex="1" parent="25">
                    <mxGeometry y="60" width="220" height="40" as="geometry"/>
                </mxCell>
                <mxCell id="29" value="+agregarCancionAlbum (nombreAlbum,&#10;Â tituloCancion, duracion)" style="text;strokeColor=none;fillColor=none;align=left;verticalAlign=top;spacingLeft=4;spacingRight=4;overflow=hidden;rotatable=0;points=[[0,0.5],[1,0.5]];portConstraint=eastwest;" vertex="1" parent="25">
                    <mxGeometry y="100" width="220" height="40" as="geometry"/>
                </mxCell>
                <mxCell id="30" value="+buscarAlbumNombre(nombreAlbum)" style="text;strokeColor=none;fillColor=none;align=left;verticalAlign=top;spacingLeft=4;spacingRight=4;overflow=hidden;rotatable=0;points=[[0,0.5],[1,0.5]];portConstraint=eastwest;" vertex="1" parent="25">
                    <mxGeometry y="140" width="220" height="20" as="geometry"/>
                </mxCell>
                <mxCell id="31" value="+buscarAlbumAnio(anioAlbum)" style="text;strokeColor=none;fillColor=none;align=left;verticalAlign=top;spacingLeft=4;spacingRight=4;overflow=hidden;rotatable=0;points=[[0,0.5],[1,0.5]];portConstraint=eastwest;" vertex="1" parent="25">
                    <mxGeometry y="160" width="220" height="30" as="geometry"/>
                </mxCell>
                <mxCell id="34" value="" style="endArrow=diamondThin;endFill=1;endSize=24;html=1;exitX=0.5;exitY=1;exitDx=0;exitDy=0;edgeStyle=orthogonalEdgeStyle;" edge="1" parent="1" source="13">
                    <mxGeometry width="160" relative="1" as="geometry">
                        <mxPoint x="180" y="310" as="sourcePoint"/>
                        <mxPoint x="330" y="350" as="targetPoint"/>
                        <Array as="points">
                            <mxPoint x="200" y="350"/>
                        </Array>
                    </mxGeometry>
                </mxCell>
                <mxCell id="35" value="" style="endArrow=diamondThin;endFill=1;endSize=24;html=1;exitX=0.5;exitY=0;exitDx=0;exitDy=0;edgeStyle=orthogonalEdgeStyle;" edge="1" parent="1" source="18">
                    <mxGeometry width="160" relative="1" as="geometry">
                        <mxPoint x="170" y="370" as="sourcePoint"/>
                        <mxPoint x="330" y="370" as="targetPoint"/>
                        <Array as="points">
                            <mxPoint x="200" y="370"/>
                        </Array>
                    </mxGeometry>
                </mxCell>
                <mxCell id="36" value="" style="endArrow=diamondThin;endFill=1;endSize=24;html=1;exitX=1;exitY=0.5;exitDx=0;exitDy=0;entryX=0;entryY=0.5;entryDx=0;entryDy=0;edgeStyle=orthogonalEdgeStyle;curved=1;" edge="1" parent="1" source="8" target="26">
                    <mxGeometry width="160" relative="1" as="geometry">
                        <mxPoint x="440" y="270" as="sourcePoint"/>
                        <mxPoint x="600" y="270" as="targetPoint"/>
                    </mxGeometry>
                </mxCell>
            </root>
        </mxGraphModel>
    </diagram>
</mxfile>